<svg width="25" height="24" viewBox="0 0 25 24" fill="none" xmlns="http://www.w3.org/2000/svg">
<path d="M12.7305 0C9.47397 0 9.06447 0.015 7.78497 0.072C6.50547 0.132 5.63397 0.333 4.87047 0.63C4.06961 0.931229 3.34421 1.40374 2.74497 2.0145C2.13458 2.61404 1.66213 3.33936 1.36047 4.14C1.06347 4.902 0.860969 5.775 0.802469 7.05C0.745469 8.3325 0.730469 8.7405 0.730469 12.0015C0.730469 15.2595 0.745469 15.6675 0.802469 16.947C0.862469 18.225 1.06347 19.0965 1.36047 19.86C1.66797 20.649 2.07747 21.318 2.74497 21.9855C3.41097 22.653 4.07997 23.064 4.86897 23.37C5.63397 23.667 6.50397 23.8695 7.78197 23.928C9.06297 23.985 9.47097 24 12.7305 24C15.99 24 16.3965 23.985 17.6775 23.928C18.954 23.868 19.8285 23.667 20.592 23.37C21.3923 23.0686 22.1172 22.5961 22.716 21.9855C23.3835 21.318 23.793 20.649 24.1005 19.86C24.396 19.0965 24.5985 18.225 24.6585 16.947C24.7155 15.6675 24.7305 15.2595 24.7305 12C24.7305 8.7405 24.7155 8.3325 24.6585 7.0515C24.5985 5.775 24.396 4.902 24.1005 4.14C23.7989 3.33934 23.3264 2.61401 22.716 2.0145C22.1169 1.40351 21.3915 0.930968 20.5905 0.63C19.8255 0.333 18.9525 0.1305 17.676 0.072C16.395 0.015 15.9885 0 12.7275 0H12.732H12.7305ZM11.655 2.163H12.732C15.936 2.163 16.3155 2.1735 17.58 2.232C18.75 2.2845 19.386 2.481 19.809 2.6445C20.3685 2.862 20.769 3.123 21.189 3.543C21.609 3.963 21.8685 4.362 22.086 4.923C22.251 5.3445 22.446 5.9805 22.4985 7.1505C22.557 8.415 22.569 8.7945 22.569 11.997C22.569 15.1995 22.557 15.5805 22.4985 16.845C22.446 18.015 22.2495 18.6495 22.086 19.0725C21.8936 19.5935 21.5865 20.0647 21.1875 20.451C20.7675 20.871 20.3685 21.1305 19.8075 21.348C19.3875 21.513 18.7515 21.708 17.58 21.762C16.3155 21.819 15.936 21.8325 12.732 21.8325C9.52797 21.8325 9.14697 21.819 7.88247 21.762C6.71247 21.708 6.07797 21.513 5.65497 21.348C5.13372 21.1559 4.66216 20.8494 4.27497 20.451C3.87559 20.0641 3.56805 19.5925 3.37497 19.071C3.21147 18.6495 3.01497 18.0135 2.96247 16.8435C2.90547 15.579 2.89347 15.1995 2.89347 11.994C2.89347 8.79 2.90547 8.412 2.96247 7.1475C3.01647 5.9775 3.21147 5.3415 3.37647 4.9185C3.59397 4.359 3.85497 3.9585 4.27497 3.5385C4.69497 3.1185 5.09397 2.859 5.65497 2.6415C6.07797 2.4765 6.71247 2.2815 7.88247 2.2275C8.98947 2.1765 9.41847 2.1615 11.655 2.16V2.163ZM19.137 4.155C18.9479 4.155 18.7606 4.19225 18.5859 4.26461C18.4112 4.33698 18.2525 4.44305 18.1187 4.57677C17.985 4.71048 17.8789 4.86923 17.8066 5.04394C17.7342 5.21864 17.697 5.4059 17.697 5.595C17.697 5.7841 17.7342 5.97135 17.8066 6.14606C17.8789 6.32077 17.985 6.47952 18.1187 6.61323C18.2525 6.74695 18.4112 6.85302 18.5859 6.92539C18.7606 6.99775 18.9479 7.035 19.137 7.035C19.5189 7.035 19.8852 6.88329 20.1552 6.61323C20.4253 6.34318 20.577 5.97691 20.577 5.595C20.577 5.21309 20.4253 4.84682 20.1552 4.57677C19.8852 4.30671 19.5189 4.155 19.137 4.155ZM12.732 5.838C11.9146 5.82525 11.1028 5.97523 10.3439 6.27921C9.58506 6.58319 8.89424 7.03511 8.31169 7.60863C7.72915 8.18216 7.26651 8.86585 6.95073 9.61989C6.63495 10.3739 6.47232 11.1833 6.47232 12.0007C6.47232 12.8182 6.63495 13.6276 6.95073 14.3816C7.26651 15.1356 7.72915 15.8193 8.31169 16.3929C8.89424 16.9664 9.58506 17.4183 10.3439 17.7223C11.1028 18.0263 11.9146 18.1763 12.732 18.1635C14.3498 18.1383 15.8928 17.4779 17.0279 16.3249C18.1631 15.1719 18.7993 13.6188 18.7993 12.0007C18.7993 10.3827 18.1631 8.82962 17.0279 7.67662C15.8928 6.52363 14.3498 5.86324 12.732 5.838ZM12.732 7.9995C13.793 7.9995 14.8105 8.42098 15.5608 9.17122C16.311 9.92146 16.7325 10.939 16.7325 12C16.7325 13.061 16.311 14.0785 15.5608 14.8288C14.8105 15.579 13.793 16.0005 12.732 16.0005C11.671 16.0005 10.6534 15.579 9.90319 14.8288C9.15295 14.0785 8.73147 13.061 8.73147 12C8.73147 10.939 9.15295 9.92146 9.90319 9.17122C10.6534 8.42098 11.671 7.9995 12.732 7.9995Z" fill="white"/>
</svg>
