<svg width="25" height="25" viewBox="0 0 25 25" fill="none" xmlns="http://www.w3.org/2000/svg">
<path d="M24.8672 3.83317C23.9846 4.31424 23.0365 4.6393 22.0397 4.78622C23.0682 4.02923 23.8376 2.83781 24.2045 1.43428C23.2382 2.14028 22.1807 2.63723 21.0779 2.90351C20.3363 1.92948 19.354 1.28387 18.2835 1.06693C17.2131 0.849988 16.1144 1.07385 15.1579 1.70375C14.2015 2.33365 13.4409 3.33436 12.9942 4.5505C12.5475 5.76664 12.4397 7.13018 12.6875 8.42942C10.7296 8.30849 8.8143 7.68251 7.06582 6.59209C5.31735 5.50168 3.7748 3.9712 2.53829 2.09998C2.11549 2.99713 1.87238 4.0373 1.87238 5.14508C1.87191 6.14234 2.07156 7.12432 2.4536 8.0039C2.83564 8.88348 3.38828 9.63346 4.06247 10.1873C3.28059 10.1567 2.51596 9.89681 1.83222 9.42928V9.50729C1.83214 10.906 2.22545 12.2616 2.94542 13.3442C3.66539 14.4268 4.66767 15.1696 5.78219 15.4467C5.05686 15.6881 4.29642 15.7237 3.55828 15.5507C3.87273 16.7542 4.48526 17.8066 5.3101 18.5606C6.13495 19.3146 7.13082 19.7324 8.1583 19.7556C6.41409 21.4399 4.26 22.3535 2.04256 22.3495C1.64976 22.3496 1.2573 22.3214 0.867188 22.265C3.11802 24.0452 5.73815 24.99 8.41409 24.9863C17.4725 24.9863 22.4245 15.7574 22.4245 7.75331C22.4245 7.49326 22.4192 7.23062 22.4097 6.97058C23.3729 6.11371 24.2044 5.05263 24.8651 3.83707L24.8672 3.83317Z" fill="white"/>
</svg>
